<svg xmlns="http://www.w3.org/2000/svg" width="36.673" height="34.504" viewBox="0 0 36.673 34.504">
  <g id="Chronological_Age_Calculator" data-name="Chronological Age Calculator" transform="translate(-11067.663 -10673.748)">
    <path id="Path_10247" data-name="Path 10247" d="M17.514,15.248h20.1a3.35,3.35,0,0,1,3.35,3.351V42.053a3.351,3.351,0,0,1-3.35,3.351h-20.1a3.352,3.352,0,0,1-3.351-3.351V18.6a3.351,3.351,0,0,1,3.351-3.351" transform="translate(11054 10659)" fill="#fff"/>
    <path id="Rectangle_1470" data-name="Rectangle 1470" d="M3.351,0h20.1a3.35,3.35,0,0,1,3.35,3.35V26.805a3.351,3.351,0,0,1-3.351,3.351H3.351A3.351,3.351,0,0,1,0,26.805V3.351A3.351,3.351,0,0,1,3.351,0Z" transform="translate(11068.163 10674.248)" fill="none" stroke="#1e70b9" stroke-miterlimit="10" stroke-width="1"/>
    <path id="Path_10248" data-name="Path 10248" d="M22.54,21.949H32.592a1.675,1.675,0,0,1,1.675,1.675V25.3a1.675,1.675,0,0,1-1.675,1.675H22.54A1.675,1.675,0,0,1,20.865,25.3V23.624a1.675,1.675,0,0,1,1.675-1.675" transform="translate(11054 10659)" fill="#fff"/>
    <rect id="Rectangle_1471" data-name="Rectangle 1471" width="13.402" height="5.026" rx="1.675" transform="translate(11074.865 10680.949)" fill="none" stroke="#1e70b9" stroke-miterlimit="10" stroke-width="1"/>
    <line id="Line_61" data-name="Line 61" x2="3.362" transform="translate(11073.151 10692.677)" fill="none" stroke="#1e70b9" stroke-miterlimit="10" stroke-width="1"/>
    <line id="Line_62" data-name="Line 62" x2="3.362" transform="translate(11079.885 10692.693)" fill="none" stroke="#1e70b9" stroke-miterlimit="10" stroke-width="1"/>
    <line id="Line_63" data-name="Line 63" x2="3.362" transform="translate(11079.885 10692.693)" fill="none" stroke="#1e70b9" stroke-miterlimit="10" stroke-width="1"/>
    <line id="Line_64" data-name="Line 64" x2="3.362" transform="translate(11086.586 10692.601)" fill="none" stroke="#1e70b9" stroke-miterlimit="10" stroke-width="1"/>
    <line id="Line_65" data-name="Line 65" x2="3.362" transform="translate(11073.151 10697.702)" fill="none" stroke="#1e70b9" stroke-miterlimit="10" stroke-width="1"/>
    <line id="Line_66" data-name="Line 66" x2="3.362" transform="translate(11079.885 10697.719)" fill="none" stroke="#1e70b9" stroke-miterlimit="10" stroke-width="1"/>
    <line id="Line_67" data-name="Line 67" x2="3.362" transform="translate(11086.586 10697.627)" fill="none" stroke="#1e70b9" stroke-miterlimit="10" stroke-width="1"/>
    <path id="Path_10249" data-name="Path 10249" d="M49.836,38.627A10.125,10.125,0,1,1,39.711,28.5,10.125,10.125,0,0,1,49.836,38.627" transform="translate(11054 10659)" fill="#fff"/>
    <circle id="Ellipse_577" data-name="Ellipse 577" cx="10.125" cy="10.125" r="10.125" transform="translate(11083.586 10687.502)" fill="none" stroke="#1e70b9" stroke-miterlimit="10" stroke-width="1"/>
    <path id="Path_10250" data-name="Path 10250" d="M39.54,43.177H35.357a1.231,1.231,0,0,1-1.231-1.231V34.558a1.231,1.231,0,0,1,1.231-1.231h7.387a1.232,1.232,0,0,1,1.232,1.231v2.463" transform="translate(11054 10659)" fill="#fff"/>
    <path id="Path_10251" data-name="Path 10251" d="M39.54,43.177H35.357a1.231,1.231,0,0,1-1.231-1.231V34.558a1.231,1.231,0,0,1,1.231-1.231h7.387a1.232,1.232,0,0,1,1.232,1.231v2.463" transform="translate(11054 10659)" fill="none" stroke="#1e70b9" stroke-linecap="round" stroke-miterlimit="10" stroke-width="1"/>
    <path id="Path_10252" data-name="Path 10252" d="M43.36,38.868A2.462,2.462,0,1,1,40.9,41.331a2.463,2.463,0,0,1,2.463-2.463" transform="translate(11054 10659)" fill="#fff"/>
    <path id="Path_10253" data-name="Path 10253" d="M43.36,38.868A2.462,2.462,0,1,1,40.9,41.331,2.463,2.463,0,0,1,43.36,38.868Z" transform="translate(11054 10659)" fill="none" stroke="#1e70b9" stroke-miterlimit="10" stroke-width="1"/>
    <line id="Line_68" data-name="Line 68" y2="2.463" transform="translate(11095.514 10691.096)" fill="#fff"/>
    <line id="Line_69" data-name="Line 69" y2="2.463" transform="translate(11095.514 10691.096)" fill="none" stroke="#1e70b9" stroke-miterlimit="10" stroke-width="1"/>
    <line id="Line_70" data-name="Line 70" y2="2.463" transform="translate(11090.588 10691.096)" fill="#fff"/>
    <line id="Line_71" data-name="Line 71" y2="2.463" transform="translate(11090.588 10691.096)" fill="none" stroke="#1e70b9" stroke-miterlimit="10" stroke-width="1"/>
    <line id="Line_72" data-name="Line 72" x2="9.85" transform="translate(11088.126 10696.021)" fill="#fff"/>
    <line id="Line_73" data-name="Line 73" x2="9.85" transform="translate(11088.126 10696.021)" fill="none" stroke="#1e70b9" stroke-linecap="round" stroke-miterlimit="10" stroke-width="1"/>
    <path id="Path_10254" data-name="Path 10254" d="M43.36,40.4v.926l.616.616" transform="translate(11054 10659)" fill="#fff"/>
    <path id="Path_10255" data-name="Path 10255" d="M43.36,40.4v.926l.616.616" transform="translate(11054 10659)" fill="none" stroke="#1e70b9" stroke-linecap="round" stroke-miterlimit="10" stroke-width="1"/>
    <rect id="Rectangle_1472" data-name="Rectangle 1472" width="2.358" height="2.358" transform="translate(11089.822 10697.543)" fill="#fff"/>
    <rect id="Rectangle_1473" data-name="Rectangle 1473" width="2.358" height="2.358" transform="translate(11089.822 10697.543)" fill="none" stroke="#1e70b9" stroke-miterlimit="10" stroke-width="1"/>
  </g>
</svg>
