<svg xmlns="http://www.w3.org/2000/svg" width="36.673" height="34.457" viewBox="0 0 36.673 34.457">
  <g id="investment_calculator" transform="translate(-807.979 -700.855)">
    <rect id="Rectangle_65" data-name="Rectangle 65" width="26.805" height="30.156" rx="3.351" transform="translate(808.479 701.355)" fill="#fff" stroke="#1e70b9" stroke-miterlimit="10" stroke-width="1"/>
    <rect id="Rectangle_66" data-name="Rectangle 66" width="13.402" height="5.026" rx="1.675" transform="translate(815.18 708.057)" fill="#fff" stroke="#1e70b9" stroke-miterlimit="10" stroke-width="1"/>
    <line id="Line_132" data-name="Line 132" x2="3.362" transform="translate(813.466 719.784)" fill="none" stroke="#1e70b9" stroke-miterlimit="10" stroke-width="1"/>
    <line id="Line_133" data-name="Line 133" x2="3.362" transform="translate(820.2 719.801)" fill="none" stroke="#1e70b9" stroke-miterlimit="10" stroke-width="1"/>
    <line id="Line_134" data-name="Line 134" x2="3.362" transform="translate(820.2 719.801)" fill="none" stroke="#1e70b9" stroke-miterlimit="10" stroke-width="1"/>
    <line id="Line_135" data-name="Line 135" x2="3.362" transform="translate(826.902 719.708)" fill="none" stroke="#1e70b9" stroke-miterlimit="10" stroke-width="1"/>
    <line id="Line_136" data-name="Line 136" x2="3.362" transform="translate(813.466 724.81)" fill="none" stroke="#1e70b9" stroke-miterlimit="10" stroke-width="1"/>
    <line id="Line_137" data-name="Line 137" x2="3.362" transform="translate(820.2 724.827)" fill="none" stroke="#1e70b9" stroke-miterlimit="10" stroke-width="1"/>
    <line id="Line_138" data-name="Line 138" x2="3.362" transform="translate(826.902 724.734)" fill="none" stroke="#1e70b9" stroke-miterlimit="10" stroke-width="1"/>
    <circle id="Ellipse_45" data-name="Ellipse 45" cx="10.125" cy="10.125" r="10.125" transform="translate(823.902 714.563)" fill="#fff" stroke="#1e70b9" stroke-miterlimit="10" stroke-width="1"/>
    <path id="Path_58" data-name="Path 58" d="M50.889,536.059" transform="translate(783.138 184.452)" fill="#fff" stroke="#1e70b9" stroke-miterlimit="10" stroke-width="1"/>
    <path id="Path_59" data-name="Path 59" d="M50.889,540.932" transform="translate(783.138 184.452)" fill="#fff" stroke="#1e70b9" stroke-miterlimit="10" stroke-width="1"/>
    <path id="Path_60" data-name="Path 60" d="M45.493,536.059" transform="translate(783.138 184.452)" fill="#fff" stroke="#1e70b9" stroke-miterlimit="10" stroke-width="1"/>
    <path id="Path_61" data-name="Path 61" d="M56.285,536.059" transform="translate(783.138 184.452)" fill="#fff" stroke="#1e70b9" stroke-miterlimit="10" stroke-width="1"/>
    <path id="Path_66" data-name="Path 66" d="M52.962,544.128c-2.577,0-4.666-.741-4.666-1.653l.008,2.43h0c.143.868,2.173,1.555,4.658,1.555s4.515-.687,4.657-1.555h0l.009-2.43c0,.912-2.089,1.653-4.666,1.653Z" transform="translate(783.138 184.452)" fill="#fff" stroke="#1e70b9" stroke-miterlimit="10" stroke-width="0.75"/>
    <path id="Path_67" data-name="Path 67" d="M48.3,542.378v.1a.777.777,0,0,1,.008-.1Z" transform="translate(783.138 184.452)" fill="#fff" stroke="#1e70b9" stroke-miterlimit="10" stroke-width="0.75"/>
    <path id="Path_68" data-name="Path 68" d="M57.619,542.378a.523.523,0,0,1,.009.1v-.1Z" transform="translate(783.138 184.452)" fill="#fff" stroke="#1e70b9" stroke-miterlimit="10" stroke-width="0.75"/>
    <path id="Path_69" data-name="Path 69" d="M52.962,541.794c-2.577,0-4.666-.739-4.666-1.653v2.431H48.3c.143.867,2.173,1.556,4.658,1.556s4.515-.689,4.657-1.556h.009v-2.431c0,.914-2.089,1.653-4.666,1.653Z" transform="translate(783.138 184.452)" fill="#fff" stroke="#1e70b9" stroke-miterlimit="10" stroke-width="0.75"/>
    <path id="Path_70" data-name="Path 70" d="M48.3,540.045v.1a.778.778,0,0,1,.008-.1Z" transform="translate(783.138 184.452)" fill="#fff" stroke="#1e70b9" stroke-miterlimit="10" stroke-width="0.75"/>
    <path id="Path_71" data-name="Path 71" d="M57.619,540.045a.52.52,0,0,1,.009.1v-.1Z" transform="translate(783.138 184.452)" fill="#fff" stroke="#1e70b9" stroke-miterlimit="10" stroke-width="0.75"/>
    <path id="Path_72" data-name="Path 72" d="M57.628,537.809c0,.912-2.089,1.653-4.666,1.653s-4.666-.741-4.666-1.653,2.089-1.653,4.666-1.653,4.666.74,4.666,1.653Z" transform="translate(783.138 184.452)" fill="#fff" stroke="#1e70b9" stroke-miterlimit="10" stroke-width="0.75"/>
    <path id="Path_73" data-name="Path 73" d="M52.962,539.462c-2.577,0-4.666-.741-4.666-1.653v2.43H48.3c.143.867,2.173,1.555,4.658,1.555s4.515-.688,4.657-1.555h.009v-2.43c0,.912-2.089,1.653-4.666,1.653Z" transform="translate(783.138 184.452)" fill="#fff" stroke="#1e70b9" stroke-miterlimit="10" stroke-width="0.75"/>
    <g id="Group_77" data-name="Group 77" transform="translate(783.138 184.452)">
      <path id="Path_74" data-name="Path 74" d="M61.231,548.566" fill="none" stroke="#1e70b9" stroke-linecap="round" stroke-linejoin="round" stroke-width="0.75"/>
      <path id="Path_75" data-name="Path 75" d="M58.178,548.566" fill="none" stroke="#1e70b9" stroke-linecap="round" stroke-linejoin="round" stroke-width="0.75"/>
    </g>
    <path id="Path_78" data-name="Path 78" d="M46.922,535.473a.964.964,0,0,0-.867-.482h-.964a.964.964,0,1,0,0,1.928h.964a.964.964,0,0,1,0,1.927h-.964a.963.963,0,0,1-.867-.482" transform="translate(783.138 184.452)" fill="none" stroke="#1e70b9" stroke-linecap="round" stroke-miterlimit="10" stroke-width="0.75"/>
    <path id="Path_79" data-name="Path 79" d="M45.573,534.028v.963m0,3.855v.964" transform="translate(783.138 184.452)" fill="none" stroke="#1e70b9" stroke-linecap="round" stroke-miterlimit="10" stroke-width="0.75"/>
  </g>
</svg>
