<svg xmlns="http://www.w3.org/2000/svg" width="36.528" height="35.225" viewBox="0 0 36.528 35.225">
  <g id="percentage_change" transform="translate(-988.337 -510.811)">
    <rect id="Rectangle_56" data-name="Rectangle 56" width="26.805" height="30.156" rx="3.351" transform="translate(988.837 511.311)" fill="#fff" stroke="#1e70b9" stroke-miterlimit="10" stroke-width="1"/>
    <rect id="Rectangle_57" data-name="Rectangle 57" width="13.402" height="5.026" rx="1.675" transform="translate(995.538 518.012)" fill="#fff" stroke="#1e70b9" stroke-miterlimit="10" stroke-width="1"/>
    <circle id="Ellipse_38" data-name="Ellipse 38" cx="10.125" cy="10.125" r="10.125" transform="translate(1004.115 525.286)" fill="#fff" stroke="#1e70b9" stroke-miterlimit="10" stroke-width="1"/>
    <line id="Line_113" data-name="Line 113" x2="3.362" transform="translate(1001.083 528.659)" fill="none" stroke="#1e70b9" stroke-miterlimit="10" stroke-width="1"/>
    <path id="Path_44" data-name="Path 44" d="M212.215,344.207H215.3m-1.541-1.541v3.082" transform="translate(783.138 184.452)" fill="none" stroke="#1e70b9" stroke-miterlimit="10" stroke-width="1"/>
    <path id="Path_45" data-name="Path 45" d="M226.833,350.531l2.385-2.386a.146.146,0,0,1,.205,0l1.454,1.455a.146.146,0,0,0,.205,0l3.215-3.216" transform="translate(783.138 184.452)" fill="none" stroke="#1e70b9" stroke-linecap="round" stroke-miterlimit="10" stroke-width="1"/>
    <path id="Path_46" data-name="Path 46" d="M231.484,346.286h2.628a.274.274,0,0,1,.274.275v2.628" transform="translate(783.138 184.452)" fill="none" stroke="#1e70b9" stroke-linecap="round" stroke-miterlimit="10" stroke-width="1"/>
    <line id="Line_114" data-name="Line 114" y2="2.599" transform="translate(1010.641 537.722)" fill="none" stroke="#1e70b9" stroke-linecap="round" stroke-miterlimit="10" stroke-width="1"/>
    <line id="Line_115" data-name="Line 115" y2="4.213" transform="translate(1015.839 536.108)" fill="none" stroke="#1e70b9" stroke-linecap="round" stroke-miterlimit="10" stroke-width="1"/>
    <line id="Line_116" data-name="Line 116" y2="3.137" transform="translate(1013.24 537.184)" fill="none" stroke="#1e70b9" stroke-linecap="round" stroke-miterlimit="10" stroke-width="1"/>
    <line id="Line_117" data-name="Line 117" y2="5.41" transform="translate(1018.438 534.911)" fill="none" stroke="#1e70b9" stroke-linecap="round" stroke-miterlimit="10" stroke-width="1"/>
    <circle id="Ellipse_39" data-name="Ellipse 39" cx="0.15" cy="0.15" r="0.15" transform="translate(996.744 532.863)" fill="#fff" stroke="#1e70b9" stroke-miterlimit="10" stroke-width="1"/>
    <circle id="Ellipse_40" data-name="Ellipse 40" cx="0.15" cy="0.15" r="0.15" transform="translate(996.744 535.631)" fill="#fff" stroke="#1e70b9" stroke-miterlimit="10" stroke-width="1"/>
    <line id="Line_118" data-name="Line 118" x2="3.229" transform="translate(995.28 534.397)" fill="#fff" stroke="#1e70b9" stroke-miterlimit="10" stroke-width="1"/>
  </g>
</svg>
